<svg xmlns="http://www.w3.org/2000/svg" xmlns:xlink="http://www.w3.org/1999/xlink" aria-hidden="true" role="img" class="iconify iconify--logos" width="31.88" height="32" preserveAspectRatio="xMidYMid meet" viewBox="0 0 256 257"><defs><linearGradient id="IconifyId1813088fe1fbc01fb466" x1="-.828%" x2="57.636%" y1="7.652%" y2="78.411%"><stop offset="0%" stop-color="#41D1FF"></stop><stop offset="100%" stop-color="#BD34FE"></stop></linearGradient><linearGradient id="IconifyId1813088fe1fbc01fb467" x1="43.376%" x2="50.316%" y1="2.242%" y2="89.03%"><stop offset="0%" stop-color="#FFEA83"></stop><stop offset="8.333%" stop-color="#FFDD35"></stop><stop offset="100%" stop-color="#FFA800"></stop></linearGradient></defs><path fill="url(#IconifyId1813088fe1fbc01fb466)" d="M255.153 37.938L134.897 252.976c-2.483 4.44-8.862 4.466-11.382.048L.875 37.958c-2.746-4.814 1.371-10.646 6.827-9.67l120.385 21.517a6.537 6.537 0 0 0 2.322-.004l117.867-21.483c5.438-.991 9.574 4.796 6.877 9.62Z"></path><path fill="url(#IconifyId1813088fe1fbc01fb467)" d="M185.432.063L96.44 17.501a8 8 0 0 0-6.457 7.276l-5.474 92.456a8 8 0 0 0 8.274 8.42l24.777-1.048c6.334-.269 11.847 4.325 12.354 10.626l1.218 15.896c.577 7.54 7.255 12.822 14.722 11.544l68.607-12.343a8 8 0 0 0 6.5-7.578l5.474-92.455a8 8 0 0 0-8.273-8.42l-24.777 1.047c-6.334.27-11.848-4.324-12.355-10.625L187.21 24.37c-.577-7.54-7.255-12.822-14.722-11.544L103.88 25.17a8 8 0 0 0-6.5 7.577l-1.06 17.924c-.163 2.75 2.13 5.088 4.886 4.941l15.565-.852a8 8 0 0 1 8.42 8.274l-.477 8.054c-.163 2.75 2.13 5.088 4.886 4.941l48.55-2.663a8 8 0 0 0 7.576-8.42l-.477-8.054c-.163-2.75 2.13-5.088 4.886-4.941l15.565.852a8 8 0 0 1 8.42-8.274l-1.218-15.896Z"></path></svg>
